<svg xmlns="http://www.w3.org/2000/svg" width="59.382" height="22.001" viewBox="0 0 59.382 22.001"><defs><style>.a{fill:#fff;stroke:#fff;}</style></defs><path class="a" d="M57.349,9.409H3.551L11.2,1.764A1.033,1.033,0,0,0,9.736.3L.439,9.6A1.03,1.03,0,0,0,0,10.443c0,.005,0,.01,0,.016s0,.022,0,.033a1.025,1.025,0,0,0,.056.289,1,1,0,0,0,.075.165,1.037,1.037,0,0,0,.088.132A.97.97,0,0,0,.3,11.2l9.5,9.5a1.033,1.033,0,0,0,1.461-1.461L3.5,11.476H57.349a1.033,1.033,0,0,0,0-2.067Z" transform="translate(58.882 21.501) rotate(180)"/></svg>