<svg xmlns="http://www.w3.org/2000/svg" width="24.865" height="24.865" viewBox="0 0 24.865 24.865">
  <path id="Path_37" data-name="Path 37" d="M12.432,2.21a38.12,38.12,0,0,1,4.973.138,6.407,6.407,0,0,1,2.348.414A4.851,4.851,0,0,1,22.1,5.111a6.407,6.407,0,0,1,.414,2.348c0,1.243.138,1.658.138,4.973a38.12,38.12,0,0,1-.138,4.973,6.407,6.407,0,0,1-.414,2.348A4.851,4.851,0,0,1,19.754,22.1a6.407,6.407,0,0,1-2.348.414c-1.243,0-1.658.138-4.973.138a38.12,38.12,0,0,1-4.973-.138A6.407,6.407,0,0,1,5.111,22.1a4.851,4.851,0,0,1-2.348-2.348,6.407,6.407,0,0,1-.414-2.348c0-1.243-.138-1.658-.138-4.973a38.12,38.12,0,0,1,.138-4.973,6.407,6.407,0,0,1,.414-2.348A4.961,4.961,0,0,1,3.73,3.73a2.335,2.335,0,0,1,1.381-.967,6.407,6.407,0,0,1,2.348-.414,38.12,38.12,0,0,1,4.973-.138m0-2.21A40.816,40.816,0,0,0,7.321.138,8.528,8.528,0,0,0,4.282.691a5.408,5.408,0,0,0-2.21,1.381A5.408,5.408,0,0,0,.691,4.282,6.294,6.294,0,0,0,.138,7.321,40.816,40.816,0,0,0,0,12.432a40.815,40.815,0,0,0,.138,5.111,8.528,8.528,0,0,0,.553,3.039,5.408,5.408,0,0,0,1.381,2.21,5.408,5.408,0,0,0,2.21,1.381,8.528,8.528,0,0,0,3.039.553,40.815,40.815,0,0,0,5.111.138,40.815,40.815,0,0,0,5.111-.138,8.528,8.528,0,0,0,3.039-.553,5.8,5.8,0,0,0,3.592-3.592,8.528,8.528,0,0,0,.553-3.039c0-1.381.138-1.8.138-5.111a40.815,40.815,0,0,0-.138-5.111,8.528,8.528,0,0,0-.553-3.039,5.408,5.408,0,0,0-1.381-2.21A5.408,5.408,0,0,0,20.582.691,8.528,8.528,0,0,0,17.543.138,40.815,40.815,0,0,0,12.432,0m0,6.078a6.252,6.252,0,0,0-6.354,6.354,6.354,6.354,0,1,0,6.354-6.354m0,10.5a4.07,4.07,0,0,1-4.144-4.144,4.07,4.07,0,0,1,4.144-4.144,4.07,4.07,0,0,1,4.144,4.144,4.07,4.07,0,0,1-4.144,4.144M19.063,4.282A1.52,1.52,0,1,0,20.582,5.8a1.533,1.533,0,0,0-1.519-1.52" fill="#fff" fill-rule="evenodd"/>
</svg>
