<svg xmlns="http://www.w3.org/2000/svg" width="37.829" height="20.632" viewBox="0 0 37.829 20.632"><g transform="translate(-5.996 -978.362)"><path d="M24.91,26A23.007,23.007,0,0,0,6.159,35.806a.86.86,0,0,0,0,1.007,22.814,22.814,0,0,0,37.5,0,.86.86,0,0,0,0-1.007A23.007,23.007,0,0,0,24.91,26Zm0,1.719a21.218,21.218,0,0,1,16.952,8.6,21.011,21.011,0,0,1-33.9,0A21.218,21.218,0,0,1,24.91,27.719Zm0,2.579a6.018,6.018,0,1,0,6.018,6.018A6.031,6.031,0,0,0,24.91,30.3Zm0,1.719a4.3,4.3,0,1,1-4.3,4.3A4.285,4.285,0,0,1,24.91,32.018Z" transform="translate(0 952.362)"/></g></svg>