<svg xmlns="http://www.w3.org/2000/svg" width="24.865" height="20.168" viewBox="0 0 24.865 20.168">
  <path id="Path_36" data-name="Path 36" d="M45.874,22.168a14.375,14.375,0,0,0,14.5-14.5V6.973a11.228,11.228,0,0,0,2.486-2.625,11.467,11.467,0,0,1-2.9.829,5.374,5.374,0,0,0,2.21-2.763A12.67,12.67,0,0,1,59,3.658,4.933,4.933,0,0,0,55.267,2a5.19,5.19,0,0,0-5.111,5.111,2.693,2.693,0,0,0,.138,1.105A14.282,14.282,0,0,1,39.8,2.829a5.29,5.29,0,0,0-.691,2.625,5.488,5.488,0,0,0,2.21,4.282,4.657,4.657,0,0,1-2.348-.691h0a5.048,5.048,0,0,0,4.144,4.973,4.259,4.259,0,0,1-1.381.138,2.351,2.351,0,0,1-.967-.138A5.233,5.233,0,0,0,45.6,17.609a10.43,10.43,0,0,1-6.354,2.21A3.824,3.824,0,0,1,38,19.681a13.038,13.038,0,0,0,7.874,2.486" transform="translate(-38 -2)" fill="#fff" fill-rule="evenodd"/>
</svg>
