<svg xmlns="http://www.w3.org/2000/svg" width="32.341" height="24.256" viewBox="0 0 32.341 24.256"><g transform="translate(-16 -28.6)"><g transform="translate(16 28.6)"><g transform="translate(0 0)"><path d="M48.341,46.387v2.4a4.07,4.07,0,0,1-4.063,4.063H20.063A4.07,4.07,0,0,1,16,48.792v-2.4a.832.832,0,0,1,.829-.829h2.4V31.834A3.238,3.238,0,0,1,22.468,28.6h19.4a3.238,3.238,0,0,1,3.234,3.234V45.558h2.4A.891.891,0,0,1,48.341,46.387Zm-1.617.829H36.9a2.419,2.419,0,0,1-2.28,1.617H29.724a2.419,2.419,0,0,1-2.28-1.617H17.617v1.617a2.416,2.416,0,0,0,2.446,2.4H44.319a2.407,2.407,0,0,0,2.4-2.4V47.217ZM20.851,45.6h7.712a.441.441,0,0,1,.415.373,1.607,1.607,0,0,0,1.576,1.244h3.234a1.607,1.607,0,0,0,1.576-1.244.441.441,0,0,1,.415-.373H43.49V31.834a1.593,1.593,0,0,0-1.617-1.617h-19.4a1.593,1.593,0,0,0-1.617,1.617Z" transform="translate(-16 -28.6)"/></g></g><g transform="translate(26.034 33.658)"><path d="M42.066,47.517H40.822a.638.638,0,0,1-.622-.622v-.622a1.247,1.247,0,0,1,1.244-1.244h1.244a1.193,1.193,0,0,1,.871.373A2.892,2.892,0,0,0,42.066,47.517Zm-1.244-4.271A1.247,1.247,0,0,1,42.066,42a1.244,1.244,0,0,1,0,2.488A1.247,1.247,0,0,1,40.822,43.246Zm9.163,4.644v.539a.92.92,0,0,1-.912.912H43.558a.92.92,0,0,1-.912-.912V47.89a2.212,2.212,0,0,1,2.2-2.2h.166a2.832,2.832,0,0,0,1.327.29,3.453,3.453,0,0,0,1.327-.29h.166A2.177,2.177,0,0,1,49.985,47.89Zm-5.8-4.934a2.156,2.156,0,1,1,2.156,2.156A2.2,2.2,0,0,1,44.18,42.956Zm8.251,3.358v.622a.638.638,0,0,1-.622.622H50.566a2.731,2.731,0,0,0-1.451-2.073,1.293,1.293,0,0,1,.871-.373h1.244A1.178,1.178,0,0,1,52.431,46.315ZM49.4,43.246a1.244,1.244,0,1,1,2.488,0,1.222,1.222,0,0,1-1.244,1.244A1.247,1.247,0,0,1,49.4,43.246Z" transform="translate(-40.2 -40.8)"/></g></g></svg>