<svg id="Group_38" data-name="Group 38" xmlns="http://www.w3.org/2000/svg" width="35.611" height="25.09" viewBox="0 0 35.611 25.09">
  <path id="Path_64" data-name="Path 64" d="M34.863,3.925A4.507,4.507,0,0,0,31.706.749C28.934,0,17.806,0,17.806,0S6.677,0,3.885.749A4.472,4.472,0,0,0,.728,3.925,47.845,47.845,0,0,0,0,12.545s0,5.827.749,8.62a4.507,4.507,0,0,0,3.156,3.177c2.772.749,13.9.749,13.9.749s11.129,0,13.921-.749a4.472,4.472,0,0,0,3.156-3.177,47.845,47.845,0,0,0,.728-8.62S35.611,6.718,34.863,3.925Z" fill="#fff"/>
  <path id="Path_65" data-name="Path 65" d="M70,46.4V35.8l9.308,5.3Z" transform="translate(-55.836 -28.556)" fill="#393838"/>
</svg>
